<mxfile host="app.diagrams.net" modified="2021-04-30T03:12:10.339Z" agent="5.0 (Macintosh; Intel Mac OS X 10_15_6) AppleWebKit/537.36 (KHTML, like Gecko) Chrome/90.0.4430.93 Safari/537.36" etag="kQpzIXRfzubWjI8C1Oc0" version="14.6.6" type="github">
  <diagram id="8QU5NE9KTFitOdIOCqZJ" name="Page-1">
    <mxGraphModel dx="1426" dy="704" grid="1" gridSize="10" guides="1" tooltips="1" connect="1" arrows="1" fold="1" page="1" pageScale="1" pageWidth="827" pageHeight="1169" math="0" shadow="0">
      <root>
        <mxCell id="0" />
        <mxCell id="1" parent="0" />
        <mxCell id="fGajkBScvO4oU9Z-KqmK-1" value="用户" style="swimlane;" parent="1" vertex="1">
          <mxGeometry x="70" y="40" width="200" height="3630" as="geometry" />
        </mxCell>
        <mxCell id="fGajkBScvO4oU9Z-KqmK-4" value="用户名&lt;br&gt;密码&lt;br&gt;登陆" style="rounded=0;whiteSpace=wrap;html=1;" parent="fGajkBScvO4oU9Z-KqmK-1" vertex="1">
          <mxGeometry x="40" y="60" width="120" height="60" as="geometry" />
        </mxCell>
        <mxCell id="fGajkBScvO4oU9Z-KqmK-60" style="edgeStyle=orthogonalEdgeStyle;rounded=0;orthogonalLoop=1;jettySize=auto;html=1;entryX=0.5;entryY=0;entryDx=0;entryDy=0;" parent="fGajkBScvO4oU9Z-KqmK-1" source="fGajkBScvO4oU9Z-KqmK-13" target="fGajkBScvO4oU9Z-KqmK-59" edge="1">
          <mxGeometry relative="1" as="geometry" />
        </mxCell>
        <mxCell id="fGajkBScvO4oU9Z-KqmK-13" value="登陆成功" style="rounded=0;whiteSpace=wrap;html=1;" parent="fGajkBScvO4oU9Z-KqmK-1" vertex="1">
          <mxGeometry x="40" y="150" width="120" height="60" as="geometry" />
        </mxCell>
        <mxCell id="-j769H0zRMGYNG9kzOUK-44" style="edgeStyle=orthogonalEdgeStyle;rounded=0;orthogonalLoop=1;jettySize=auto;html=1;" parent="fGajkBScvO4oU9Z-KqmK-1" source="fGajkBScvO4oU9Z-KqmK-32" target="-j769H0zRMGYNG9kzOUK-43" edge="1">
          <mxGeometry relative="1" as="geometry">
            <Array as="points">
              <mxPoint x="30" y="1575" />
              <mxPoint x="30" y="1820" />
            </Array>
          </mxGeometry>
        </mxCell>
        <mxCell id="fGajkBScvO4oU9Z-KqmK-32" value="报名准备&lt;br&gt;开始匹配" style="rounded=0;whiteSpace=wrap;html=1;" parent="fGajkBScvO4oU9Z-KqmK-1" vertex="1">
          <mxGeometry x="60" y="1540" width="120" height="60" as="geometry" />
        </mxCell>
        <mxCell id="fGajkBScvO4oU9Z-KqmK-65" style="edgeStyle=orthogonalEdgeStyle;rounded=0;orthogonalLoop=1;jettySize=auto;html=1;entryX=0.5;entryY=0;entryDx=0;entryDy=0;" parent="fGajkBScvO4oU9Z-KqmK-1" source="fGajkBScvO4oU9Z-KqmK-42" target="fGajkBScvO4oU9Z-KqmK-43" edge="1">
          <mxGeometry relative="1" as="geometry" />
        </mxCell>
        <mxCell id="fGajkBScvO4oU9Z-KqmK-42" value="开始游戏" style="rounded=0;whiteSpace=wrap;html=1;" parent="fGajkBScvO4oU9Z-KqmK-1" vertex="1">
          <mxGeometry x="48" y="2030" width="120" height="60" as="geometry" />
        </mxCell>
        <mxCell id="fGajkBScvO4oU9Z-KqmK-43" value="日常游戏&lt;br&gt;操作指令" style="ellipse;whiteSpace=wrap;html=1;aspect=fixed;" parent="fGajkBScvO4oU9Z-KqmK-1" vertex="1">
          <mxGeometry x="68" y="2420" width="80" height="80" as="geometry" />
        </mxCell>
        <mxCell id="fGajkBScvO4oU9Z-KqmK-50" value="触发游戏结束" style="rounded=0;whiteSpace=wrap;html=1;" parent="fGajkBScvO4oU9Z-KqmK-1" vertex="1">
          <mxGeometry x="38" y="3350" width="120" height="60" as="geometry" />
        </mxCell>
        <mxCell id="fGajkBScvO4oU9Z-KqmK-59" value="loading&lt;br&gt;...&lt;br&gt;..." style="ellipse;whiteSpace=wrap;html=1;aspect=fixed;" parent="fGajkBScvO4oU9Z-KqmK-1" vertex="1">
          <mxGeometry x="60" y="345" width="80" height="80" as="geometry" />
        </mxCell>
        <mxCell id="fGajkBScvO4oU9Z-KqmK-72" style="edgeStyle=orthogonalEdgeStyle;rounded=0;orthogonalLoop=1;jettySize=auto;html=1;entryX=0.5;entryY=1;entryDx=0;entryDy=0;" parent="fGajkBScvO4oU9Z-KqmK-1" source="fGajkBScvO4oU9Z-KqmK-70" target="fGajkBScvO4oU9Z-KqmK-43" edge="1">
          <mxGeometry relative="1" as="geometry">
            <mxPoint x="104" y="2570" as="targetPoint" />
          </mxGeometry>
        </mxCell>
        <mxCell id="fGajkBScvO4oU9Z-KqmK-70" value="展示UI操作结果" style="rounded=0;whiteSpace=wrap;html=1;" parent="fGajkBScvO4oU9Z-KqmK-1" vertex="1">
          <mxGeometry x="46" y="3230" width="120" height="60" as="geometry" />
        </mxCell>
        <mxCell id="fGajkBScvO4oU9Z-KqmK-79" value="一局&lt;br&gt;游戏结束" style="rounded=1;whiteSpace=wrap;html=1;" parent="fGajkBScvO4oU9Z-KqmK-1" vertex="1">
          <mxGeometry x="38" y="3460" width="120" height="60" as="geometry" />
        </mxCell>
        <mxCell id="-j769H0zRMGYNG9kzOUK-33" value="取消准备" style="rounded=0;whiteSpace=wrap;html=1;" parent="fGajkBScvO4oU9Z-KqmK-1" vertex="1">
          <mxGeometry x="60" y="1680" width="120" height="60" as="geometry" />
        </mxCell>
        <mxCell id="-j769H0zRMGYNG9kzOUK-43" value="loading&lt;br&gt;...&lt;br&gt;..." style="ellipse;whiteSpace=wrap;html=1;aspect=fixed;" parent="fGajkBScvO4oU9Z-KqmK-1" vertex="1">
          <mxGeometry x="68" y="1890" width="80" height="80" as="geometry" />
        </mxCell>
        <mxCell id="fGajkBScvO4oU9Z-KqmK-2" value="cocos/前端" style="swimlane;" parent="1" vertex="1">
          <mxGeometry x="320" y="40" width="200" height="3630" as="geometry" />
        </mxCell>
        <mxCell id="fGajkBScvO4oU9Z-KqmK-5" value="登陆" style="rounded=0;whiteSpace=wrap;html=1;" parent="fGajkBScvO4oU9Z-KqmK-2" vertex="1">
          <mxGeometry x="40" y="60" width="120" height="60" as="geometry" />
        </mxCell>
        <mxCell id="fGajkBScvO4oU9Z-KqmK-11" value="存本地" style="rounded=0;whiteSpace=wrap;html=1;" parent="fGajkBScvO4oU9Z-KqmK-2" vertex="1">
          <mxGeometry x="40" y="150" width="120" height="60" as="geometry" />
        </mxCell>
        <mxCell id="fGajkBScvO4oU9Z-KqmK-15" value="getServer" style="rounded=0;whiteSpace=wrap;html=1;" parent="fGajkBScvO4oU9Z-KqmK-2" vertex="1">
          <mxGeometry x="40" y="245" width="120" height="60" as="geometry" />
        </mxCell>
        <mxCell id="-j769H0zRMGYNG9kzOUK-64" style="edgeStyle=orthogonalEdgeStyle;rounded=0;orthogonalLoop=1;jettySize=auto;html=1;" parent="fGajkBScvO4oU9Z-KqmK-2" source="fGajkBScvO4oU9Z-KqmK-18" target="-j769H0zRMGYNG9kzOUK-1" edge="1">
          <mxGeometry relative="1" as="geometry" />
        </mxCell>
        <mxCell id="fGajkBScvO4oU9Z-KqmK-18" value="存本地" style="rounded=0;whiteSpace=wrap;html=1;" parent="fGajkBScvO4oU9Z-KqmK-2" vertex="1">
          <mxGeometry x="40" y="345" width="120" height="60" as="geometry" />
        </mxCell>
        <mxCell id="fGajkBScvO4oU9Z-KqmK-22" value="login" style="rounded=0;whiteSpace=wrap;html=1;" parent="fGajkBScvO4oU9Z-KqmK-2" vertex="1">
          <mxGeometry x="40" y="545" width="120" height="60" as="geometry" />
        </mxCell>
        <mxCell id="-j769H0zRMGYNG9kzOUK-69" style="edgeStyle=orthogonalEdgeStyle;rounded=0;orthogonalLoop=1;jettySize=auto;html=1;entryX=0.5;entryY=0;entryDx=0;entryDy=0;" parent="fGajkBScvO4oU9Z-KqmK-2" source="fGajkBScvO4oU9Z-KqmK-24" target="-j769H0zRMGYNG9kzOUK-68" edge="1">
          <mxGeometry relative="1" as="geometry" />
        </mxCell>
        <mxCell id="fGajkBScvO4oU9Z-KqmK-24" value="渲染游戏基础UI&lt;br&gt;房间信息&lt;br&gt;准备按钮&lt;br&gt;...." style="rounded=0;whiteSpace=wrap;html=1;" parent="fGajkBScvO4oU9Z-KqmK-2" vertex="1">
          <mxGeometry x="44" y="1260" width="120" height="60" as="geometry" />
        </mxCell>
        <mxCell id="-j769H0zRMGYNG9kzOUK-72" style="edgeStyle=orthogonalEdgeStyle;rounded=0;orthogonalLoop=1;jettySize=auto;html=1;entryX=0.5;entryY=0;entryDx=0;entryDy=0;" parent="fGajkBScvO4oU9Z-KqmK-2" source="fGajkBScvO4oU9Z-KqmK-38" target="-j769H0zRMGYNG9kzOUK-71" edge="1">
          <mxGeometry relative="1" as="geometry" />
        </mxCell>
        <mxCell id="fGajkBScvO4oU9Z-KqmK-38" value="等待后端&lt;br&gt;返回匹配&lt;br&gt;结果" style="ellipse;whiteSpace=wrap;html=1;aspect=fixed;" parent="fGajkBScvO4oU9Z-KqmK-2" vertex="1">
          <mxGeometry x="68" y="1790" width="80" height="80" as="geometry" />
        </mxCell>
        <mxCell id="6pCZh5-W6IdHgqrbszZI-13" style="edgeStyle=orthogonalEdgeStyle;rounded=0;orthogonalLoop=1;jettySize=auto;html=1;entryX=0.5;entryY=0;entryDx=0;entryDy=0;" parent="fGajkBScvO4oU9Z-KqmK-2" source="fGajkBScvO4oU9Z-KqmK-40" target="6pCZh5-W6IdHgqrbszZI-3" edge="1">
          <mxGeometry relative="1" as="geometry" />
        </mxCell>
        <mxCell id="fGajkBScvO4oU9Z-KqmK-40" value="渲染游戏UI&lt;br&gt;地图&lt;br&gt;玩家信息&lt;br&gt;玩家位置&lt;br&gt;...." style="rounded=0;whiteSpace=wrap;html=1;" parent="fGajkBScvO4oU9Z-KqmK-2" vertex="1">
          <mxGeometry x="48" y="2020" width="120" height="80" as="geometry" />
        </mxCell>
        <mxCell id="6pCZh5-W6IdHgqrbszZI-33" style="edgeStyle=orthogonalEdgeStyle;rounded=0;orthogonalLoop=1;jettySize=auto;html=1;entryX=0.5;entryY=0;entryDx=0;entryDy=0;" parent="fGajkBScvO4oU9Z-KqmK-2" source="fGajkBScvO4oU9Z-KqmK-47" target="fGajkBScvO4oU9Z-KqmK-49" edge="1">
          <mxGeometry relative="1" as="geometry" />
        </mxCell>
        <mxCell id="fGajkBScvO4oU9Z-KqmK-47" value="等待后端&lt;br&gt;逻辑帧" style="ellipse;whiteSpace=wrap;html=1;aspect=fixed;" parent="fGajkBScvO4oU9Z-KqmK-2" vertex="1">
          <mxGeometry x="70" y="3080" width="80" height="80" as="geometry" />
        </mxCell>
        <mxCell id="fGajkBScvO4oU9Z-KqmK-49" value="根据后端逻辑帧&lt;br&gt;开始渲染&lt;br&gt;玩家操作UI" style="rounded=0;whiteSpace=wrap;html=1;" parent="fGajkBScvO4oU9Z-KqmK-2" vertex="1">
          <mxGeometry x="50" y="3230" width="120" height="60" as="geometry" />
        </mxCell>
        <mxCell id="fGajkBScvO4oU9Z-KqmK-55" value="UI渲染&lt;br&gt;清理游戏&lt;br&gt;结束过程" style="rounded=0;whiteSpace=wrap;html=1;" parent="fGajkBScvO4oU9Z-KqmK-2" vertex="1">
          <mxGeometry x="52" y="3460" width="120" height="60" as="geometry" />
        </mxCell>
        <mxCell id="fGajkBScvO4oU9Z-KqmK-74" value="推送&lt;br&gt;游戏结束" style="rounded=0;whiteSpace=wrap;html=1;" parent="fGajkBScvO4oU9Z-KqmK-2" vertex="1">
          <mxGeometry x="52" y="3350" width="120" height="60" as="geometry" />
        </mxCell>
        <mxCell id="-j769H0zRMGYNG9kzOUK-65" style="edgeStyle=orthogonalEdgeStyle;rounded=0;orthogonalLoop=1;jettySize=auto;html=1;entryX=0.5;entryY=0;entryDx=0;entryDy=0;" parent="fGajkBScvO4oU9Z-KqmK-2" source="-j769H0zRMGYNG9kzOUK-1" target="fGajkBScvO4oU9Z-KqmK-22" edge="1">
          <mxGeometry relative="1" as="geometry" />
        </mxCell>
        <mxCell id="-j769H0zRMGYNG9kzOUK-1" value="创建socket&lt;br&gt;长连接" style="rounded=0;whiteSpace=wrap;html=1;" parent="fGajkBScvO4oU9Z-KqmK-2" vertex="1">
          <mxGeometry x="40" y="440" width="120" height="60" as="geometry" />
        </mxCell>
        <mxCell id="1LP57BGd8HRHrdq-bNOX-6" style="edgeStyle=orthogonalEdgeStyle;rounded=0;orthogonalLoop=1;jettySize=auto;html=1;entryX=0.5;entryY=0;entryDx=0;entryDy=0;" edge="1" parent="fGajkBScvO4oU9Z-KqmK-2" source="-j769H0zRMGYNG9kzOUK-8" target="1LP57BGd8HRHrdq-bNOX-4">
          <mxGeometry relative="1" as="geometry" />
        </mxCell>
        <mxCell id="-j769H0zRMGYNG9kzOUK-8" value="成功" style="rounded=0;whiteSpace=wrap;html=1;" parent="fGajkBScvO4oU9Z-KqmK-2" vertex="1">
          <mxGeometry x="44" y="635" width="120" height="60" as="geometry" />
        </mxCell>
        <mxCell id="-j769H0zRMGYNG9kzOUK-24" style="edgeStyle=orthogonalEdgeStyle;rounded=0;orthogonalLoop=1;jettySize=auto;html=1;" parent="fGajkBScvO4oU9Z-KqmK-2" source="-j769H0zRMGYNG9kzOUK-16" target="-j769H0zRMGYNG9kzOUK-21" edge="1">
          <mxGeometry relative="1" as="geometry" />
        </mxCell>
        <mxCell id="-j769H0zRMGYNG9kzOUK-42" style="edgeStyle=orthogonalEdgeStyle;rounded=0;orthogonalLoop=1;jettySize=auto;html=1;entryX=0;entryY=0.5;entryDx=0;entryDy=0;" parent="fGajkBScvO4oU9Z-KqmK-2" source="-j769H0zRMGYNG9kzOUK-16" target="fGajkBScvO4oU9Z-KqmK-24" edge="1">
          <mxGeometry relative="1" as="geometry">
            <Array as="points">
              <mxPoint x="24" y="1090" />
              <mxPoint x="24" y="1290" />
            </Array>
          </mxGeometry>
        </mxCell>
        <mxCell id="-j769H0zRMGYNG9kzOUK-16" value="roomId&lt;br&gt;存在" style="rhombus;whiteSpace=wrap;html=1;" parent="fGajkBScvO4oU9Z-KqmK-2" vertex="1">
          <mxGeometry x="64" y="1050" width="80" height="80" as="geometry" />
        </mxCell>
        <mxCell id="-j769H0zRMGYNG9kzOUK-21" value="掉线前的逻辑帧号&lt;br&gt;playerResumeGame" style="rounded=0;whiteSpace=wrap;html=1;" parent="fGajkBScvO4oU9Z-KqmK-2" vertex="1">
          <mxGeometry x="44" y="1163" width="120" height="60" as="geometry" />
        </mxCell>
        <mxCell id="-j769H0zRMGYNG9kzOUK-47" value="playerCancel" style="rounded=0;whiteSpace=wrap;html=1;" parent="fGajkBScvO4oU9Z-KqmK-2" vertex="1">
          <mxGeometry x="54" y="1680" width="120" height="60" as="geometry" />
        </mxCell>
        <mxCell id="-j769H0zRMGYNG9kzOUK-61" style="edgeStyle=orthogonalEdgeStyle;rounded=0;orthogonalLoop=1;jettySize=auto;html=1;" parent="fGajkBScvO4oU9Z-KqmK-2" source="-j769H0zRMGYNG9kzOUK-57" target="-j769H0zRMGYNG9kzOUK-60" edge="1">
          <mxGeometry relative="1" as="geometry" />
        </mxCell>
        <mxCell id="-j769H0zRMGYNG9kzOUK-57" value="66MS&lt;br&gt;等待玩家&lt;br&gt;操作指令" style="ellipse;whiteSpace=wrap;html=1;aspect=fixed;" parent="fGajkBScvO4oU9Z-KqmK-2" vertex="1">
          <mxGeometry x="68" y="2420" width="80" height="80" as="geometry" />
        </mxCell>
        <mxCell id="6pCZh5-W6IdHgqrbszZI-18" style="edgeStyle=orthogonalEdgeStyle;rounded=0;orthogonalLoop=1;jettySize=auto;html=1;entryX=0.5;entryY=0;entryDx=0;entryDy=0;" parent="fGajkBScvO4oU9Z-KqmK-2" source="-j769H0zRMGYNG9kzOUK-60" target="6pCZh5-W6IdHgqrbszZI-15" edge="1">
          <mxGeometry relative="1" as="geometry" />
        </mxCell>
        <mxCell id="-j769H0zRMGYNG9kzOUK-60" value="空操作" style="rhombus;whiteSpace=wrap;html=1;" parent="fGajkBScvO4oU9Z-KqmK-2" vertex="1">
          <mxGeometry x="68" y="2560" width="80" height="80" as="geometry" />
        </mxCell>
        <mxCell id="-j769H0zRMGYNG9kzOUK-68" value="接收玩家&lt;br&gt;指令" style="ellipse;whiteSpace=wrap;html=1;aspect=fixed;" parent="fGajkBScvO4oU9Z-KqmK-2" vertex="1">
          <mxGeometry x="64" y="1530" width="80" height="80" as="geometry" />
        </mxCell>
        <mxCell id="-j769H0zRMGYNG9kzOUK-73" style="edgeStyle=orthogonalEdgeStyle;rounded=0;orthogonalLoop=1;jettySize=auto;html=1;entryX=0.5;entryY=0;entryDx=0;entryDy=0;" parent="fGajkBScvO4oU9Z-KqmK-2" source="-j769H0zRMGYNG9kzOUK-71" target="fGajkBScvO4oU9Z-KqmK-40" edge="1">
          <mxGeometry relative="1" as="geometry" />
        </mxCell>
        <mxCell id="-j769H0zRMGYNG9kzOUK-71" value="保存&lt;br&gt;roomId&lt;br&gt;其它玩家信息" style="rounded=0;whiteSpace=wrap;html=1;" parent="fGajkBScvO4oU9Z-KqmK-2" vertex="1">
          <mxGeometry x="48" y="1900" width="120" height="60" as="geometry" />
        </mxCell>
        <mxCell id="-j769H0zRMGYNG9kzOUK-79" value="pong" style="rounded=0;whiteSpace=wrap;html=1;" parent="fGajkBScvO4oU9Z-KqmK-2" vertex="1">
          <mxGeometry x="118" y="750" width="56" height="40" as="geometry" />
        </mxCell>
        <mxCell id="6pCZh5-W6IdHgqrbszZI-12" style="edgeStyle=orthogonalEdgeStyle;rounded=0;orthogonalLoop=1;jettySize=auto;html=1;" parent="fGajkBScvO4oU9Z-KqmK-2" source="6pCZh5-W6IdHgqrbszZI-3" target="6pCZh5-W6IdHgqrbszZI-9" edge="1">
          <mxGeometry relative="1" as="geometry" />
        </mxCell>
        <mxCell id="6pCZh5-W6IdHgqrbszZI-3" value="ready" style="ellipse;whiteSpace=wrap;html=1;aspect=fixed;" parent="fGajkBScvO4oU9Z-KqmK-2" vertex="1">
          <mxGeometry x="68" y="2130" width="80" height="80" as="geometry" />
        </mxCell>
        <mxCell id="6pCZh5-W6IdHgqrbszZI-11" style="edgeStyle=orthogonalEdgeStyle;rounded=0;orthogonalLoop=1;jettySize=auto;html=1;" parent="fGajkBScvO4oU9Z-KqmK-2" source="6pCZh5-W6IdHgqrbszZI-9" target="-j769H0zRMGYNG9kzOUK-57" edge="1">
          <mxGeometry relative="1" as="geometry" />
        </mxCell>
        <mxCell id="6pCZh5-W6IdHgqrbszZI-9" value="start" style="rounded=0;whiteSpace=wrap;html=1;" parent="fGajkBScvO4oU9Z-KqmK-2" vertex="1">
          <mxGeometry x="48" y="2260" width="120" height="60" as="geometry" />
        </mxCell>
        <mxCell id="6pCZh5-W6IdHgqrbszZI-15" value="生成空帧" style="rounded=0;whiteSpace=wrap;html=1;" parent="fGajkBScvO4oU9Z-KqmK-2" vertex="1">
          <mxGeometry x="48" y="2680" width="120" height="60" as="geometry" />
        </mxCell>
        <mxCell id="1LP57BGd8HRHrdq-bNOX-1" value="heart&lt;br&gt;beat" style="rounded=0;whiteSpace=wrap;html=1;" vertex="1" parent="fGajkBScvO4oU9Z-KqmK-2">
          <mxGeometry x="118" y="800" width="56" height="40" as="geometry" />
        </mxCell>
        <mxCell id="1LP57BGd8HRHrdq-bNOX-9" style="edgeStyle=orthogonalEdgeStyle;rounded=0;orthogonalLoop=1;jettySize=auto;html=1;entryX=0.5;entryY=0;entryDx=0;entryDy=0;" edge="1" parent="fGajkBScvO4oU9Z-KqmK-2" source="1LP57BGd8HRHrdq-bNOX-4" target="-j769H0zRMGYNG9kzOUK-16">
          <mxGeometry relative="1" as="geometry" />
        </mxCell>
        <mxCell id="1LP57BGd8HRHrdq-bNOX-4" value="playerInfo&lt;br&gt;存本地" style="rounded=0;whiteSpace=wrap;html=1;" vertex="1" parent="fGajkBScvO4oU9Z-KqmK-2">
          <mxGeometry x="44" y="890" width="120" height="60" as="geometry" />
        </mxCell>
        <mxCell id="fGajkBScvO4oU9Z-KqmK-3" value="后端" style="swimlane;" parent="1" vertex="1">
          <mxGeometry x="580" y="40" width="200" height="3630" as="geometry" />
        </mxCell>
        <mxCell id="-j769H0zRMGYNG9kzOUK-31" style="edgeStyle=orthogonalEdgeStyle;rounded=0;orthogonalLoop=1;jettySize=auto;html=1;" parent="fGajkBScvO4oU9Z-KqmK-3" source="fGajkBScvO4oU9Z-KqmK-6" target="fGajkBScvO4oU9Z-KqmK-10" edge="1">
          <mxGeometry relative="1" as="geometry" />
        </mxCell>
        <mxCell id="fGajkBScvO4oU9Z-KqmK-6" value="登陆&lt;br&gt;检验" style="rounded=0;whiteSpace=wrap;html=1;" parent="fGajkBScvO4oU9Z-KqmK-3" vertex="1">
          <mxGeometry x="40" y="60" width="120" height="60" as="geometry" />
        </mxCell>
        <mxCell id="fGajkBScvO4oU9Z-KqmK-10" value="生成token" style="rounded=0;whiteSpace=wrap;html=1;" parent="fGajkBScvO4oU9Z-KqmK-3" vertex="1">
          <mxGeometry x="40" y="150" width="120" height="60" as="geometry" />
        </mxCell>
        <mxCell id="-j769H0zRMGYNG9kzOUK-63" style="edgeStyle=orthogonalEdgeStyle;rounded=0;orthogonalLoop=1;jettySize=auto;html=1;" parent="fGajkBScvO4oU9Z-KqmK-3" source="fGajkBScvO4oU9Z-KqmK-16" target="fGajkBScvO4oU9Z-KqmK-19" edge="1">
          <mxGeometry relative="1" as="geometry" />
        </mxCell>
        <mxCell id="fGajkBScvO4oU9Z-KqmK-16" value="获取服务配置信息&lt;br&gt;ws:IP-PORT" style="rounded=0;whiteSpace=wrap;html=1;" parent="fGajkBScvO4oU9Z-KqmK-3" vertex="1">
          <mxGeometry x="40" y="245" width="120" height="60" as="geometry" />
        </mxCell>
        <mxCell id="fGajkBScvO4oU9Z-KqmK-19" value="配置信息" style="rounded=0;whiteSpace=wrap;html=1;" parent="fGajkBScvO4oU9Z-KqmK-3" vertex="1">
          <mxGeometry x="40" y="345" width="120" height="60" as="geometry" />
        </mxCell>
        <mxCell id="-j769H0zRMGYNG9kzOUK-9" style="edgeStyle=orthogonalEdgeStyle;rounded=0;orthogonalLoop=1;jettySize=auto;html=1;entryX=0.5;entryY=0;entryDx=0;entryDy=0;" parent="fGajkBScvO4oU9Z-KqmK-3" source="fGajkBScvO4oU9Z-KqmK-23" target="-j769H0zRMGYNG9kzOUK-7" edge="1">
          <mxGeometry relative="1" as="geometry" />
        </mxCell>
        <mxCell id="fGajkBScvO4oU9Z-KqmK-23" value="&amp;nbsp; 验证token" style="rounded=0;whiteSpace=wrap;html=1;" parent="fGajkBScvO4oU9Z-KqmK-3" vertex="1">
          <mxGeometry x="44" y="545" width="120" height="60" as="geometry" />
        </mxCell>
        <mxCell id="fGajkBScvO4oU9Z-KqmK-35" value="socket" style="edgeStyle=orthogonalEdgeStyle;rounded=0;orthogonalLoop=1;jettySize=auto;html=1;entryX=0;entryY=0.5;entryDx=0;entryDy=0;exitX=1;exitY=0.5;exitDx=0;exitDy=0;" parent="fGajkBScvO4oU9Z-KqmK-3" source="-j769H0zRMGYNG9kzOUK-68" edge="1">
          <mxGeometry relative="1" as="geometry">
            <mxPoint x="-80" y="1570" as="sourcePoint" />
            <mxPoint x="60" y="1570" as="targetPoint" />
          </mxGeometry>
        </mxCell>
        <mxCell id="fGajkBScvO4oU9Z-KqmK-61" style="edgeStyle=orthogonalEdgeStyle;rounded=0;orthogonalLoop=1;jettySize=auto;html=1;" parent="fGajkBScvO4oU9Z-KqmK-3" source="fGajkBScvO4oU9Z-KqmK-36" target="fGajkBScvO4oU9Z-KqmK-37" edge="1">
          <mxGeometry relative="1" as="geometry" />
        </mxCell>
        <mxCell id="fGajkBScvO4oU9Z-KqmK-36" value="报名&lt;br&gt;添加匹配池" style="rounded=0;whiteSpace=wrap;html=1;" parent="fGajkBScvO4oU9Z-KqmK-3" vertex="1">
          <mxGeometry x="60" y="1540" width="120" height="60" as="geometry" />
        </mxCell>
        <mxCell id="fGajkBScvO4oU9Z-KqmK-62" style="edgeStyle=orthogonalEdgeStyle;rounded=0;orthogonalLoop=1;jettySize=auto;html=1;" parent="fGajkBScvO4oU9Z-KqmK-3" source="fGajkBScvO4oU9Z-KqmK-37" target="fGajkBScvO4oU9Z-KqmK-39" edge="1">
          <mxGeometry relative="1" as="geometry" />
        </mxCell>
        <mxCell id="fGajkBScvO4oU9Z-KqmK-37" value="玩家&lt;br&gt;匹配池" style="ellipse;whiteSpace=wrap;html=1;aspect=fixed;" parent="fGajkBScvO4oU9Z-KqmK-3" vertex="1">
          <mxGeometry x="80" y="1670" width="80" height="80" as="geometry" />
        </mxCell>
        <mxCell id="fGajkBScvO4oU9Z-KqmK-39" value="匹配成功" style="rounded=0;whiteSpace=wrap;html=1;" parent="fGajkBScvO4oU9Z-KqmK-3" vertex="1">
          <mxGeometry x="60" y="1800" width="120" height="60" as="geometry" />
        </mxCell>
        <mxCell id="6pCZh5-W6IdHgqrbszZI-31" style="edgeStyle=orthogonalEdgeStyle;rounded=0;orthogonalLoop=1;jettySize=auto;html=1;entryX=0.5;entryY=0;entryDx=0;entryDy=0;" parent="fGajkBScvO4oU9Z-KqmK-3" source="fGajkBScvO4oU9Z-KqmK-45" target="6pCZh5-W6IdHgqrbszZI-27" edge="1">
          <mxGeometry relative="1" as="geometry" />
        </mxCell>
        <mxCell id="fGajkBScvO4oU9Z-KqmK-45" value="接收玩家操作&lt;br&gt;指令" style="ellipse;whiteSpace=wrap;html=1;aspect=fixed;" parent="fGajkBScvO4oU9Z-KqmK-3" vertex="1">
          <mxGeometry x="60" y="2670" width="80" height="80" as="geometry" />
        </mxCell>
        <mxCell id="fGajkBScvO4oU9Z-KqmK-77" style="edgeStyle=orthogonalEdgeStyle;rounded=0;orthogonalLoop=1;jettySize=auto;html=1;entryX=0.5;entryY=0;entryDx=0;entryDy=0;" parent="fGajkBScvO4oU9Z-KqmK-3" source="fGajkBScvO4oU9Z-KqmK-53" target="fGajkBScvO4oU9Z-KqmK-54" edge="1">
          <mxGeometry relative="1" as="geometry" />
        </mxCell>
        <mxCell id="fGajkBScvO4oU9Z-KqmK-53" value="接收游戏&lt;br&gt;结束" style="ellipse;whiteSpace=wrap;html=1;aspect=fixed;" parent="fGajkBScvO4oU9Z-KqmK-3" vertex="1">
          <mxGeometry x="72" y="3340" width="80" height="80" as="geometry" />
        </mxCell>
        <mxCell id="fGajkBScvO4oU9Z-KqmK-54" value="确认游戏结束" style="rounded=0;whiteSpace=wrap;html=1;" parent="fGajkBScvO4oU9Z-KqmK-3" vertex="1">
          <mxGeometry x="52" y="3460" width="120" height="60" as="geometry" />
        </mxCell>
        <mxCell id="-j769H0zRMGYNG9kzOUK-2" value="创建socket&lt;br&gt;长连接" style="rounded=0;whiteSpace=wrap;html=1;" parent="fGajkBScvO4oU9Z-KqmK-3" vertex="1">
          <mxGeometry x="40" y="435" width="120" height="60" as="geometry" />
        </mxCell>
        <mxCell id="-j769H0zRMGYNG9kzOUK-7" value="loginRes&lt;br&gt;playerInfo" style="rounded=0;whiteSpace=wrap;html=1;" parent="fGajkBScvO4oU9Z-KqmK-3" vertex="1">
          <mxGeometry x="44" y="635" width="120" height="60" as="geometry" />
        </mxCell>
        <mxCell id="-j769H0zRMGYNG9kzOUK-66" style="edgeStyle=orthogonalEdgeStyle;rounded=0;orthogonalLoop=1;jettySize=auto;html=1;entryX=0.5;entryY=0;entryDx=0;entryDy=0;" parent="fGajkBScvO4oU9Z-KqmK-3" source="-j769H0zRMGYNG9kzOUK-20" target="-j769H0zRMGYNG9kzOUK-26" edge="1">
          <mxGeometry relative="1" as="geometry" />
        </mxCell>
        <mxCell id="-j769H0zRMGYNG9kzOUK-20" value="通知其它玩家&lt;br&gt;该掉线玩家&lt;br&gt;已恢复" style="rounded=0;whiteSpace=wrap;html=1;" parent="fGajkBScvO4oU9Z-KqmK-3" vertex="1">
          <mxGeometry x="44" y="1163" width="120" height="60" as="geometry" />
        </mxCell>
        <mxCell id="-j769H0zRMGYNG9kzOUK-26" value="当前玩家&lt;br&gt;掉线前的&lt;br&gt;操作记录" style="rounded=0;whiteSpace=wrap;html=1;" parent="fGajkBScvO4oU9Z-KqmK-3" vertex="1">
          <mxGeometry x="44" y="1260" width="120" height="60" as="geometry" />
        </mxCell>
        <mxCell id="-j769H0zRMGYNG9kzOUK-80" value="ping" style="rounded=0;whiteSpace=wrap;html=1;" parent="fGajkBScvO4oU9Z-KqmK-3" vertex="1">
          <mxGeometry x="72" y="750" width="56" height="40" as="geometry" />
        </mxCell>
        <mxCell id="-j769H0zRMGYNG9kzOUK-81" value="测试RTT" style="endArrow=classic;startArrow=classic;html=1;" parent="fGajkBScvO4oU9Z-KqmK-3" edge="1">
          <mxGeometry width="50" height="50" relative="1" as="geometry">
            <mxPoint x="-80" y="769.5" as="sourcePoint" />
            <mxPoint x="60" y="769.5" as="targetPoint" />
          </mxGeometry>
        </mxCell>
        <mxCell id="6pCZh5-W6IdHgqrbszZI-7" style="edgeStyle=orthogonalEdgeStyle;rounded=0;orthogonalLoop=1;jettySize=auto;html=1;" parent="fGajkBScvO4oU9Z-KqmK-3" source="6pCZh5-W6IdHgqrbszZI-4" target="6pCZh5-W6IdHgqrbszZI-5" edge="1">
          <mxGeometry relative="1" as="geometry" />
        </mxCell>
        <mxCell id="6pCZh5-W6IdHgqrbszZI-4" value="等待所有&lt;br&gt;玩家准确" style="ellipse;whiteSpace=wrap;html=1;aspect=fixed;" parent="fGajkBScvO4oU9Z-KqmK-3" vertex="1">
          <mxGeometry x="72" y="2130" width="80" height="80" as="geometry" />
        </mxCell>
        <mxCell id="6pCZh5-W6IdHgqrbszZI-5" value="startBattle" style="rounded=0;whiteSpace=wrap;html=1;" parent="fGajkBScvO4oU9Z-KqmK-3" vertex="1">
          <mxGeometry x="52" y="2260" width="120" height="60" as="geometry" />
        </mxCell>
        <mxCell id="6pCZh5-W6IdHgqrbszZI-26" style="edgeStyle=orthogonalEdgeStyle;rounded=0;orthogonalLoop=1;jettySize=auto;html=1;entryX=0.5;entryY=0;entryDx=0;entryDy=0;" parent="fGajkBScvO4oU9Z-KqmK-3" source="6pCZh5-W6IdHgqrbszZI-20" target="6pCZh5-W6IdHgqrbszZI-25" edge="1">
          <mxGeometry relative="1" as="geometry" />
        </mxCell>
        <mxCell id="6pCZh5-W6IdHgqrbszZI-20" value="玩家-操作集合" style="swimlane;fontStyle=0;childLayout=stackLayout;horizontal=1;startSize=26;fillColor=none;horizontalStack=0;resizeParent=1;resizeParentMax=0;resizeLast=0;collapsible=1;marginBottom=0;" parent="fGajkBScvO4oU9Z-KqmK-3" vertex="1">
          <mxGeometry x="30" y="2930" width="140" height="104" as="geometry" />
        </mxCell>
        <mxCell id="6pCZh5-W6IdHgqrbszZI-21" value="玩家2-操作" style="text;strokeColor=none;fillColor=none;align=left;verticalAlign=top;spacingLeft=4;spacingRight=4;overflow=hidden;rotatable=0;points=[[0,0.5],[1,0.5]];portConstraint=eastwest;" parent="6pCZh5-W6IdHgqrbszZI-20" vertex="1">
          <mxGeometry y="26" width="140" height="26" as="geometry" />
        </mxCell>
        <mxCell id="6pCZh5-W6IdHgqrbszZI-22" value="玩家1-操作" style="text;strokeColor=none;fillColor=none;align=left;verticalAlign=top;spacingLeft=4;spacingRight=4;overflow=hidden;rotatable=0;points=[[0,0.5],[1,0.5]];portConstraint=eastwest;" parent="6pCZh5-W6IdHgqrbszZI-20" vertex="1">
          <mxGeometry y="52" width="140" height="26" as="geometry" />
        </mxCell>
        <mxCell id="6pCZh5-W6IdHgqrbszZI-23" value="......" style="text;strokeColor=none;fillColor=none;align=left;verticalAlign=top;spacingLeft=4;spacingRight=4;overflow=hidden;rotatable=0;points=[[0,0.5],[1,0.5]];portConstraint=eastwest;" parent="6pCZh5-W6IdHgqrbszZI-20" vertex="1">
          <mxGeometry y="78" width="140" height="26" as="geometry" />
        </mxCell>
        <mxCell id="6pCZh5-W6IdHgqrbszZI-25" value="66ms&lt;br&gt;取出打包成帧&lt;br&gt;帧号+1" style="ellipse;whiteSpace=wrap;html=1;aspect=fixed;" parent="fGajkBScvO4oU9Z-KqmK-3" vertex="1">
          <mxGeometry x="60" y="3080" width="80" height="80" as="geometry" />
        </mxCell>
        <mxCell id="6pCZh5-W6IdHgqrbszZI-30" style="edgeStyle=orthogonalEdgeStyle;rounded=0;orthogonalLoop=1;jettySize=auto;html=1;entryX=0.5;entryY=1;entryDx=0;entryDy=0;" parent="fGajkBScvO4oU9Z-KqmK-3" source="6pCZh5-W6IdHgqrbszZI-27" target="6pCZh5-W6IdHgqrbszZI-28" edge="1">
          <mxGeometry relative="1" as="geometry">
            <Array as="points">
              <mxPoint x="36" y="2830" />
            </Array>
          </mxGeometry>
        </mxCell>
        <mxCell id="6pCZh5-W6IdHgqrbszZI-32" style="edgeStyle=orthogonalEdgeStyle;rounded=0;orthogonalLoop=1;jettySize=auto;html=1;entryX=0.5;entryY=0;entryDx=0;entryDy=0;" parent="fGajkBScvO4oU9Z-KqmK-3" source="6pCZh5-W6IdHgqrbszZI-27" target="6pCZh5-W6IdHgqrbszZI-20" edge="1">
          <mxGeometry relative="1" as="geometry" />
        </mxCell>
        <mxCell id="6pCZh5-W6IdHgqrbszZI-27" value="帧号&lt;br&gt;不等于&lt;br&gt;当前帧号" style="rhombus;whiteSpace=wrap;html=1;" parent="fGajkBScvO4oU9Z-KqmK-3" vertex="1">
          <mxGeometry x="60" y="2790" width="80" height="80" as="geometry" />
        </mxCell>
        <mxCell id="6pCZh5-W6IdHgqrbszZI-28" value="丢弃" style="rounded=0;whiteSpace=wrap;html=1;" parent="fGajkBScvO4oU9Z-KqmK-3" vertex="1">
          <mxGeometry x="8" y="2760" width="56" height="40" as="geometry" />
        </mxCell>
        <mxCell id="1LP57BGd8HRHrdq-bNOX-2" value="up&lt;br&gt;time" style="rounded=0;whiteSpace=wrap;html=1;" vertex="1" parent="fGajkBScvO4oU9Z-KqmK-3">
          <mxGeometry x="72" y="800" width="56" height="40" as="geometry" />
        </mxCell>
        <mxCell id="1LP57BGd8HRHrdq-bNOX-3" value="socket" style="endArrow=classic;startArrow=classic;html=1;" edge="1" parent="fGajkBScvO4oU9Z-KqmK-3">
          <mxGeometry width="50" height="50" relative="1" as="geometry">
            <mxPoint x="-76" y="820" as="sourcePoint" />
            <mxPoint x="64" y="820" as="targetPoint" />
          </mxGeometry>
        </mxCell>
        <mxCell id="fGajkBScvO4oU9Z-KqmK-7" value="http" style="edgeStyle=orthogonalEdgeStyle;rounded=0;orthogonalLoop=1;jettySize=auto;html=1;" parent="1" source="fGajkBScvO4oU9Z-KqmK-5" target="fGajkBScvO4oU9Z-KqmK-6" edge="1">
          <mxGeometry relative="1" as="geometry" />
        </mxCell>
        <mxCell id="fGajkBScvO4oU9Z-KqmK-8" value="opt-ui" style="edgeStyle=orthogonalEdgeStyle;rounded=0;orthogonalLoop=1;jettySize=auto;html=1;entryX=0;entryY=0.5;entryDx=0;entryDy=0;" parent="1" source="fGajkBScvO4oU9Z-KqmK-4" target="fGajkBScvO4oU9Z-KqmK-5" edge="1">
          <mxGeometry relative="1" as="geometry" />
        </mxCell>
        <mxCell id="fGajkBScvO4oU9Z-KqmK-12" style="edgeStyle=orthogonalEdgeStyle;rounded=0;orthogonalLoop=1;jettySize=auto;html=1;entryX=1;entryY=0.5;entryDx=0;entryDy=0;" parent="1" source="fGajkBScvO4oU9Z-KqmK-10" target="fGajkBScvO4oU9Z-KqmK-11" edge="1">
          <mxGeometry relative="1" as="geometry" />
        </mxCell>
        <mxCell id="fGajkBScvO4oU9Z-KqmK-27" value="http" style="edgeLabel;html=1;align=center;verticalAlign=middle;resizable=0;points=[];" parent="fGajkBScvO4oU9Z-KqmK-12" vertex="1" connectable="0">
          <mxGeometry y="-1" relative="1" as="geometry">
            <mxPoint as="offset" />
          </mxGeometry>
        </mxCell>
        <mxCell id="fGajkBScvO4oU9Z-KqmK-14" style="edgeStyle=orthogonalEdgeStyle;rounded=0;orthogonalLoop=1;jettySize=auto;html=1;" parent="1" source="fGajkBScvO4oU9Z-KqmK-11" target="fGajkBScvO4oU9Z-KqmK-13" edge="1">
          <mxGeometry relative="1" as="geometry" />
        </mxCell>
        <mxCell id="fGajkBScvO4oU9Z-KqmK-17" style="edgeStyle=orthogonalEdgeStyle;rounded=0;orthogonalLoop=1;jettySize=auto;html=1;entryX=0;entryY=0.5;entryDx=0;entryDy=0;" parent="1" source="fGajkBScvO4oU9Z-KqmK-15" target="fGajkBScvO4oU9Z-KqmK-16" edge="1">
          <mxGeometry relative="1" as="geometry" />
        </mxCell>
        <mxCell id="fGajkBScvO4oU9Z-KqmK-20" value="http" style="edgeLabel;html=1;align=center;verticalAlign=middle;resizable=0;points=[];" parent="fGajkBScvO4oU9Z-KqmK-17" vertex="1" connectable="0">
          <mxGeometry x="-0.0308" y="-1" relative="1" as="geometry">
            <mxPoint as="offset" />
          </mxGeometry>
        </mxCell>
        <mxCell id="fGajkBScvO4oU9Z-KqmK-21" style="edgeStyle=orthogonalEdgeStyle;rounded=0;orthogonalLoop=1;jettySize=auto;html=1;entryX=1;entryY=0.5;entryDx=0;entryDy=0;" parent="1" source="fGajkBScvO4oU9Z-KqmK-19" target="fGajkBScvO4oU9Z-KqmK-18" edge="1">
          <mxGeometry relative="1" as="geometry" />
        </mxCell>
        <mxCell id="fGajkBScvO4oU9Z-KqmK-28" value="http" style="edgeLabel;html=1;align=center;verticalAlign=middle;resizable=0;points=[];" parent="fGajkBScvO4oU9Z-KqmK-21" vertex="1" connectable="0">
          <mxGeometry x="-0.0857" relative="1" as="geometry">
            <mxPoint as="offset" />
          </mxGeometry>
        </mxCell>
        <mxCell id="fGajkBScvO4oU9Z-KqmK-30" value="socket" style="edgeStyle=orthogonalEdgeStyle;rounded=0;orthogonalLoop=1;jettySize=auto;html=1;entryX=0;entryY=0.5;entryDx=0;entryDy=0;" parent="1" source="fGajkBScvO4oU9Z-KqmK-22" target="fGajkBScvO4oU9Z-KqmK-23" edge="1">
          <mxGeometry relative="1" as="geometry" />
        </mxCell>
        <mxCell id="fGajkBScvO4oU9Z-KqmK-48" style="edgeStyle=orthogonalEdgeStyle;rounded=0;orthogonalLoop=1;jettySize=auto;html=1;entryX=1;entryY=0.5;entryDx=0;entryDy=0;" parent="1" target="fGajkBScvO4oU9Z-KqmK-47" edge="1">
          <mxGeometry relative="1" as="geometry">
            <mxPoint x="640" y="3160" as="sourcePoint" />
          </mxGeometry>
        </mxCell>
        <mxCell id="fGajkBScvO4oU9Z-KqmK-83" value="socket" style="edgeLabel;html=1;align=center;verticalAlign=middle;resizable=0;points=[];" parent="fGajkBScvO4oU9Z-KqmK-48" vertex="1" connectable="0">
          <mxGeometry x="-0.275" y="2" relative="1" as="geometry">
            <mxPoint as="offset" />
          </mxGeometry>
        </mxCell>
        <mxCell id="fGajkBScvO4oU9Z-KqmK-63" style="edgeStyle=orthogonalEdgeStyle;rounded=0;orthogonalLoop=1;jettySize=auto;html=1;entryX=1;entryY=0.5;entryDx=0;entryDy=0;" parent="1" source="fGajkBScvO4oU9Z-KqmK-40" target="fGajkBScvO4oU9Z-KqmK-42" edge="1">
          <mxGeometry relative="1" as="geometry" />
        </mxCell>
        <mxCell id="fGajkBScvO4oU9Z-KqmK-71" style="edgeStyle=orthogonalEdgeStyle;rounded=0;orthogonalLoop=1;jettySize=auto;html=1;entryX=1;entryY=0.5;entryDx=0;entryDy=0;" parent="1" source="fGajkBScvO4oU9Z-KqmK-49" target="fGajkBScvO4oU9Z-KqmK-70" edge="1">
          <mxGeometry relative="1" as="geometry" />
        </mxCell>
        <mxCell id="fGajkBScvO4oU9Z-KqmK-75" style="edgeStyle=orthogonalEdgeStyle;rounded=0;orthogonalLoop=1;jettySize=auto;html=1;" parent="1" source="fGajkBScvO4oU9Z-KqmK-50" target="fGajkBScvO4oU9Z-KqmK-74" edge="1">
          <mxGeometry relative="1" as="geometry" />
        </mxCell>
        <mxCell id="fGajkBScvO4oU9Z-KqmK-90" value="opt-ui" style="edgeLabel;html=1;align=center;verticalAlign=middle;resizable=0;points=[];" parent="fGajkBScvO4oU9Z-KqmK-75" vertex="1" connectable="0">
          <mxGeometry x="-0.2833" y="2" relative="1" as="geometry">
            <mxPoint as="offset" />
          </mxGeometry>
        </mxCell>
        <mxCell id="fGajkBScvO4oU9Z-KqmK-76" style="edgeStyle=orthogonalEdgeStyle;rounded=0;orthogonalLoop=1;jettySize=auto;html=1;entryX=0;entryY=0.5;entryDx=0;entryDy=0;" parent="1" source="fGajkBScvO4oU9Z-KqmK-74" target="fGajkBScvO4oU9Z-KqmK-53" edge="1">
          <mxGeometry relative="1" as="geometry" />
        </mxCell>
        <mxCell id="fGajkBScvO4oU9Z-KqmK-84" value="socket" style="edgeLabel;html=1;align=center;verticalAlign=middle;resizable=0;points=[];" parent="fGajkBScvO4oU9Z-KqmK-76" vertex="1" connectable="0">
          <mxGeometry x="0.1" relative="1" as="geometry">
            <mxPoint as="offset" />
          </mxGeometry>
        </mxCell>
        <mxCell id="fGajkBScvO4oU9Z-KqmK-78" style="edgeStyle=orthogonalEdgeStyle;rounded=0;orthogonalLoop=1;jettySize=auto;html=1;entryX=1;entryY=0.5;entryDx=0;entryDy=0;" parent="1" source="fGajkBScvO4oU9Z-KqmK-54" target="fGajkBScvO4oU9Z-KqmK-55" edge="1">
          <mxGeometry relative="1" as="geometry" />
        </mxCell>
        <mxCell id="fGajkBScvO4oU9Z-KqmK-85" value="socket" style="edgeLabel;html=1;align=center;verticalAlign=middle;resizable=0;points=[];" parent="fGajkBScvO4oU9Z-KqmK-78" vertex="1" connectable="0">
          <mxGeometry x="-0.3143" y="-2" relative="1" as="geometry">
            <mxPoint as="offset" />
          </mxGeometry>
        </mxCell>
        <mxCell id="fGajkBScvO4oU9Z-KqmK-80" style="edgeStyle=orthogonalEdgeStyle;rounded=0;orthogonalLoop=1;jettySize=auto;html=1;" parent="1" source="fGajkBScvO4oU9Z-KqmK-55" target="fGajkBScvO4oU9Z-KqmK-79" edge="1">
          <mxGeometry relative="1" as="geometry" />
        </mxCell>
        <mxCell id="fGajkBScvO4oU9Z-KqmK-86" style="edgeStyle=orthogonalEdgeStyle;rounded=0;orthogonalLoop=1;jettySize=auto;html=1;entryX=1;entryY=0.5;entryDx=0;entryDy=0;" parent="1" source="fGajkBScvO4oU9Z-KqmK-39" target="fGajkBScvO4oU9Z-KqmK-38" edge="1">
          <mxGeometry relative="1" as="geometry" />
        </mxCell>
        <mxCell id="fGajkBScvO4oU9Z-KqmK-88" value="socket" style="edgeLabel;html=1;align=center;verticalAlign=middle;resizable=0;points=[];" parent="fGajkBScvO4oU9Z-KqmK-86" vertex="1" connectable="0">
          <mxGeometry x="-0.0959" y="2" relative="1" as="geometry">
            <mxPoint as="offset" />
          </mxGeometry>
        </mxCell>
        <mxCell id="fGajkBScvO4oU9Z-KqmK-91" value="" style="endArrow=none;dashed=1;html=1;" parent="1" edge="1">
          <mxGeometry width="50" height="50" relative="1" as="geometry">
            <mxPoint x="10" y="170" as="sourcePoint" />
            <mxPoint x="10" y="110" as="targetPoint" />
          </mxGeometry>
        </mxCell>
        <mxCell id="fGajkBScvO4oU9Z-KqmK-92" value="" style="endArrow=none;dashed=1;html=1;" parent="1" edge="1">
          <mxGeometry width="50" height="50" relative="1" as="geometry">
            <mxPoint x="810" y="150" as="sourcePoint" />
            <mxPoint x="810" y="90" as="targetPoint" />
          </mxGeometry>
        </mxCell>
        <mxCell id="fGajkBScvO4oU9Z-KqmK-93" value="" style="endArrow=none;dashed=1;html=1;" parent="1" edge="1">
          <mxGeometry width="50" height="50" relative="1" as="geometry">
            <mxPoint x="360" y="20" as="sourcePoint" />
            <mxPoint x="430" y="20" as="targetPoint" />
          </mxGeometry>
        </mxCell>
        <mxCell id="-j769H0zRMGYNG9kzOUK-6" value="" style="endArrow=classic;startArrow=classic;html=1;" parent="1" edge="1">
          <mxGeometry width="50" height="50" relative="1" as="geometry">
            <mxPoint x="480" y="505" as="sourcePoint" />
            <mxPoint x="620" y="505" as="targetPoint" />
          </mxGeometry>
        </mxCell>
        <mxCell id="-j769H0zRMGYNG9kzOUK-10" style="edgeStyle=orthogonalEdgeStyle;rounded=0;orthogonalLoop=1;jettySize=auto;html=1;entryX=1;entryY=0.5;entryDx=0;entryDy=0;" parent="1" source="-j769H0zRMGYNG9kzOUK-7" target="-j769H0zRMGYNG9kzOUK-8" edge="1">
          <mxGeometry relative="1" as="geometry" />
        </mxCell>
        <mxCell id="-j769H0zRMGYNG9kzOUK-11" value="socket" style="edgeLabel;html=1;align=center;verticalAlign=middle;resizable=0;points=[];" parent="-j769H0zRMGYNG9kzOUK-10" vertex="1" connectable="0">
          <mxGeometry x="-0.0286" y="1" relative="1" as="geometry">
            <mxPoint as="offset" />
          </mxGeometry>
        </mxCell>
        <mxCell id="-j769H0zRMGYNG9kzOUK-23" style="edgeStyle=orthogonalEdgeStyle;rounded=0;orthogonalLoop=1;jettySize=auto;html=1;entryX=0;entryY=0.5;entryDx=0;entryDy=0;" parent="1" source="-j769H0zRMGYNG9kzOUK-21" target="-j769H0zRMGYNG9kzOUK-20" edge="1">
          <mxGeometry relative="1" as="geometry" />
        </mxCell>
        <mxCell id="-j769H0zRMGYNG9kzOUK-27" style="edgeStyle=orthogonalEdgeStyle;rounded=0;orthogonalLoop=1;jettySize=auto;html=1;entryX=1;entryY=0.5;entryDx=0;entryDy=0;" parent="1" source="-j769H0zRMGYNG9kzOUK-26" target="fGajkBScvO4oU9Z-KqmK-24" edge="1">
          <mxGeometry relative="1" as="geometry" />
        </mxCell>
        <mxCell id="-j769H0zRMGYNG9kzOUK-48" style="edgeStyle=orthogonalEdgeStyle;rounded=0;orthogonalLoop=1;jettySize=auto;html=1;entryX=0;entryY=0.5;entryDx=0;entryDy=0;" parent="1" source="-j769H0zRMGYNG9kzOUK-33" target="-j769H0zRMGYNG9kzOUK-47" edge="1">
          <mxGeometry relative="1" as="geometry" />
        </mxCell>
        <mxCell id="-j769H0zRMGYNG9kzOUK-49" style="edgeStyle=orthogonalEdgeStyle;rounded=0;orthogonalLoop=1;jettySize=auto;html=1;entryX=0;entryY=0.5;entryDx=0;entryDy=0;" parent="1" source="-j769H0zRMGYNG9kzOUK-47" target="fGajkBScvO4oU9Z-KqmK-37" edge="1">
          <mxGeometry relative="1" as="geometry" />
        </mxCell>
        <mxCell id="-j769H0zRMGYNG9kzOUK-50" value="socket" style="edgeLabel;html=1;align=center;verticalAlign=middle;resizable=0;points=[];" parent="-j769H0zRMGYNG9kzOUK-49" vertex="1" connectable="0">
          <mxGeometry x="-0.0964" relative="1" as="geometry">
            <mxPoint as="offset" />
          </mxGeometry>
        </mxCell>
        <mxCell id="-j769H0zRMGYNG9kzOUK-58" style="edgeStyle=orthogonalEdgeStyle;rounded=0;orthogonalLoop=1;jettySize=auto;html=1;entryX=0;entryY=0.5;entryDx=0;entryDy=0;" parent="1" source="fGajkBScvO4oU9Z-KqmK-43" target="-j769H0zRMGYNG9kzOUK-57" edge="1">
          <mxGeometry relative="1" as="geometry" />
        </mxCell>
        <mxCell id="-j769H0zRMGYNG9kzOUK-70" style="edgeStyle=orthogonalEdgeStyle;rounded=0;orthogonalLoop=1;jettySize=auto;html=1;entryX=0;entryY=0.5;entryDx=0;entryDy=0;" parent="1" source="fGajkBScvO4oU9Z-KqmK-32" target="-j769H0zRMGYNG9kzOUK-68" edge="1">
          <mxGeometry relative="1" as="geometry" />
        </mxCell>
        <mxCell id="6pCZh5-W6IdHgqrbszZI-10" style="edgeStyle=orthogonalEdgeStyle;rounded=0;orthogonalLoop=1;jettySize=auto;html=1;entryX=0;entryY=0.5;entryDx=0;entryDy=0;" parent="1" source="6pCZh5-W6IdHgqrbszZI-3" target="6pCZh5-W6IdHgqrbszZI-4" edge="1">
          <mxGeometry relative="1" as="geometry" />
        </mxCell>
        <mxCell id="6pCZh5-W6IdHgqrbszZI-14" style="edgeStyle=orthogonalEdgeStyle;rounded=0;orthogonalLoop=1;jettySize=auto;html=1;" parent="1" source="6pCZh5-W6IdHgqrbszZI-5" target="6pCZh5-W6IdHgqrbszZI-9" edge="1">
          <mxGeometry relative="1" as="geometry" />
        </mxCell>
        <mxCell id="6pCZh5-W6IdHgqrbszZI-16" style="edgeStyle=orthogonalEdgeStyle;rounded=0;orthogonalLoop=1;jettySize=auto;html=1;entryX=0.5;entryY=0;entryDx=0;entryDy=0;" parent="1" source="-j769H0zRMGYNG9kzOUK-60" target="fGajkBScvO4oU9Z-KqmK-45" edge="1">
          <mxGeometry relative="1" as="geometry" />
        </mxCell>
        <mxCell id="6pCZh5-W6IdHgqrbszZI-17" style="edgeStyle=orthogonalEdgeStyle;rounded=0;orthogonalLoop=1;jettySize=auto;html=1;entryX=0;entryY=0.5;entryDx=0;entryDy=0;" parent="1" source="6pCZh5-W6IdHgqrbszZI-15" target="fGajkBScvO4oU9Z-KqmK-45" edge="1">
          <mxGeometry relative="1" as="geometry" />
        </mxCell>
      </root>
    </mxGraphModel>
  </diagram>
</mxfile>
